<mxfile host="app.diagrams.net" agent="Mozilla/5.0 (Windows NT 10.0; Win64; x64) AppleWebKit/537.36 (KHTML, like Gecko) Chrome/139.0.0.0 Safari/537.36 Edg/139.0.0.0" version="28.2.0">
  <diagram name="第 1 页" id="AqHYt7cmpNQ97MI4Yj-4">
    <mxGraphModel dx="4116" dy="2292" grid="1" gridSize="10" guides="1" tooltips="1" connect="1" arrows="1" fold="1" page="1" pageScale="1" pageWidth="827" pageHeight="1169" math="0" shadow="0">
      <root>
        <mxCell id="0" />
        <mxCell id="1" parent="0" />
        <mxCell id="cyB58QRVmEf7rILU_TA3-1" value="" style="whiteSpace=wrap;html=1;fillColor=none;dashed=1;strokeWidth=3;strokeColor=light-dark(#ce3b3b, #ededed);" vertex="1" parent="1">
          <mxGeometry x="730" y="765" width="940" height="315" as="geometry" />
        </mxCell>
        <mxCell id="cyB58QRVmEf7rILU_TA3-2" value="" style="whiteSpace=wrap;html=1;fillColor=none;dashed=1;strokeWidth=3;strokeColor=light-dark(#ce3b3b, #ededed);" vertex="1" parent="1">
          <mxGeometry x="570" y="250" width="1260" height="250" as="geometry" />
        </mxCell>
        <mxCell id="cyB58QRVmEf7rILU_TA3-3" value="3" style="rounded=0;whiteSpace=wrap;html=1;fillColor=#fff2cc;strokeColor=#d6b656;fontSize=18;fontStyle=1" vertex="1" parent="1">
          <mxGeometry x="960" y="320" width="40" height="120" as="geometry" />
        </mxCell>
        <mxCell id="cyB58QRVmEf7rILU_TA3-4" value="4" style="rounded=0;whiteSpace=wrap;html=1;fillColor=#fff2cc;strokeColor=#d6b656;fontSize=18;fontStyle=1" vertex="1" parent="1">
          <mxGeometry x="1000" y="320" width="40" height="120" as="geometry" />
        </mxCell>
        <mxCell id="cyB58QRVmEf7rILU_TA3-5" value="5" style="rounded=0;whiteSpace=wrap;html=1;fillColor=#fff2cc;strokeColor=#d6b656;fontSize=18;fontStyle=1" vertex="1" parent="1">
          <mxGeometry x="1040" y="320" width="40" height="120" as="geometry" />
        </mxCell>
        <mxCell id="cyB58QRVmEf7rILU_TA3-6" value="6" style="rounded=0;whiteSpace=wrap;html=1;fillColor=#fff2cc;strokeColor=#d6b656;fontSize=18;fontStyle=1" vertex="1" parent="1">
          <mxGeometry x="1080" y="320" width="40" height="120" as="geometry" />
        </mxCell>
        <mxCell id="cyB58QRVmEf7rILU_TA3-7" value="7" style="rounded=0;whiteSpace=wrap;html=1;fillColor=#fff2cc;strokeColor=#d6b656;fontSize=18;fontStyle=1" vertex="1" parent="1">
          <mxGeometry x="1120" y="320" width="40" height="120" as="geometry" />
        </mxCell>
        <mxCell id="cyB58QRVmEf7rILU_TA3-8" value="8" style="rounded=0;whiteSpace=wrap;html=1;fillColor=#fff2cc;strokeColor=#d6b656;fontSize=18;fontStyle=1" vertex="1" parent="1">
          <mxGeometry x="1160" y="320" width="40" height="120" as="geometry" />
        </mxCell>
        <mxCell id="cyB58QRVmEf7rILU_TA3-9" value="9" style="rounded=0;whiteSpace=wrap;html=1;fillColor=#fff2cc;strokeColor=#d6b656;fontSize=18;fontStyle=1" vertex="1" parent="1">
          <mxGeometry x="1200" y="320" width="40" height="120" as="geometry" />
        </mxCell>
        <mxCell id="cyB58QRVmEf7rILU_TA3-10" value="10" style="rounded=0;whiteSpace=wrap;html=1;fillColor=#fff2cc;strokeColor=#d6b656;fontSize=18;fontStyle=1" vertex="1" parent="1">
          <mxGeometry x="1240" y="320" width="40" height="120" as="geometry" />
        </mxCell>
        <mxCell id="cyB58QRVmEf7rILU_TA3-11" value="11" style="rounded=0;whiteSpace=wrap;html=1;fillColor=#fff2cc;strokeColor=#d6b656;fontSize=18;fontStyle=1" vertex="1" parent="1">
          <mxGeometry x="1280" y="320" width="40" height="120" as="geometry" />
        </mxCell>
        <mxCell id="cyB58QRVmEf7rILU_TA3-12" value="12" style="rounded=0;whiteSpace=wrap;html=1;fillColor=#fff2cc;strokeColor=#d6b656;fontSize=18;fontStyle=1" vertex="1" parent="1">
          <mxGeometry x="1320" y="320" width="40" height="120" as="geometry" />
        </mxCell>
        <mxCell id="cyB58QRVmEf7rILU_TA3-13" value="13" style="rounded=0;whiteSpace=wrap;html=1;fillColor=#fff2cc;strokeColor=#d6b656;fontSize=18;fontStyle=1" vertex="1" parent="1">
          <mxGeometry x="1360" y="320" width="40" height="120" as="geometry" />
        </mxCell>
        <mxCell id="cyB58QRVmEf7rILU_TA3-14" value="14" style="rounded=0;whiteSpace=wrap;html=1;fillColor=#fff2cc;strokeColor=#d6b656;fontSize=18;fontStyle=1" vertex="1" parent="1">
          <mxGeometry x="1400" y="320" width="40" height="120" as="geometry" />
        </mxCell>
        <mxCell id="cyB58QRVmEf7rILU_TA3-15" value="" style="whiteSpace=wrap;html=1;fillColor=none;dashed=1;strokeWidth=3;strokeColor=light-dark(#ce3b3b, #ededed);" vertex="1" parent="1">
          <mxGeometry x="2020" y="620" width="1150" height="240" as="geometry" />
        </mxCell>
        <mxCell id="cyB58QRVmEf7rILU_TA3-16" value="&lt;font style=&quot;font-size: 22px;&quot;&gt;&lt;b&gt;fused_qkv&lt;/b&gt;&lt;/font&gt;" style="text;html=1;align=center;verticalAlign=middle;resizable=0;points=[];autosize=1;strokeColor=none;fillColor=none;" vertex="1" parent="1">
          <mxGeometry x="590" y="250" width="130" height="40" as="geometry" />
        </mxCell>
        <mxCell id="cyB58QRVmEf7rILU_TA3-17" value="" style="endArrow=none;dashed=1;html=1;dashPattern=1 3;strokeWidth=4;rounded=0;entryX=0.5;entryY=0;entryDx=0;entryDy=0;strokeColor=#FF0000;" edge="1" parent="1" target="cyB58QRVmEf7rILU_TA3-2">
          <mxGeometry width="50" height="50" relative="1" as="geometry">
            <mxPoint x="1200" y="510" as="sourcePoint" />
            <mxPoint x="1410" y="620" as="targetPoint" />
          </mxGeometry>
        </mxCell>
        <mxCell id="cyB58QRVmEf7rILU_TA3-18" value="&lt;font style=&quot;font-size: 22px;&quot;&gt;&lt;b&gt;tp2&lt;/b&gt;&lt;/font&gt;" style="text;html=1;align=center;verticalAlign=middle;resizable=0;points=[];autosize=1;strokeColor=none;fillColor=none;" vertex="1" parent="1">
          <mxGeometry x="740" y="770" width="60" height="40" as="geometry" />
        </mxCell>
        <mxCell id="cyB58QRVmEf7rILU_TA3-19" value="&lt;font style=&quot;font-size: 22px;&quot;&gt;&lt;b&gt;rank0&lt;/b&gt;&lt;/font&gt;" style="text;html=1;align=center;verticalAlign=middle;resizable=0;points=[];autosize=1;strokeColor=none;fillColor=none;" vertex="1" parent="1">
          <mxGeometry x="920" y="960" width="80" height="40" as="geometry" />
        </mxCell>
        <mxCell id="cyB58QRVmEf7rILU_TA3-20" value="&lt;font style=&quot;font-size: 22px;&quot;&gt;&lt;b&gt;rank1&lt;/b&gt;&lt;/font&gt;" style="text;html=1;align=center;verticalAlign=middle;resizable=0;points=[];autosize=1;strokeColor=none;fillColor=none;" vertex="1" parent="1">
          <mxGeometry x="1407" y="960" width="80" height="40" as="geometry" />
        </mxCell>
        <mxCell id="cyB58QRVmEf7rILU_TA3-21" value="&lt;font style=&quot;font-size: 22px;&quot;&gt;&lt;b&gt;tp4&lt;/b&gt;&lt;/font&gt;" style="text;html=1;align=center;verticalAlign=middle;resizable=0;points=[];autosize=1;strokeColor=none;fillColor=none;" vertex="1" parent="1">
          <mxGeometry x="2020" y="630" width="60" height="40" as="geometry" />
        </mxCell>
        <mxCell id="cyB58QRVmEf7rILU_TA3-22" value="&lt;font style=&quot;font-size: 22px;&quot;&gt;&lt;b&gt;rank0&lt;/b&gt;&lt;/font&gt;" style="text;html=1;align=center;verticalAlign=middle;resizable=0;points=[];autosize=1;strokeColor=none;fillColor=none;" vertex="1" parent="1">
          <mxGeometry x="2127" y="820" width="80" height="40" as="geometry" />
        </mxCell>
        <mxCell id="cyB58QRVmEf7rILU_TA3-23" value="&lt;font style=&quot;font-size: 22px;&quot;&gt;&lt;b&gt;rank1&lt;/b&gt;&lt;/font&gt;" style="text;html=1;align=center;verticalAlign=middle;resizable=0;points=[];autosize=1;strokeColor=none;fillColor=none;" vertex="1" parent="1">
          <mxGeometry x="2401" y="820" width="80" height="40" as="geometry" />
        </mxCell>
        <mxCell id="cyB58QRVmEf7rILU_TA3-24" value="&lt;font style=&quot;font-size: 22px;&quot;&gt;&lt;b&gt;rank2&lt;/b&gt;&lt;/font&gt;" style="text;html=1;align=center;verticalAlign=middle;resizable=0;points=[];autosize=1;strokeColor=none;fillColor=none;" vertex="1" parent="1">
          <mxGeometry x="2685" y="820" width="80" height="40" as="geometry" />
        </mxCell>
        <mxCell id="cyB58QRVmEf7rILU_TA3-25" value="&lt;font style=&quot;font-size: 22px;&quot;&gt;&lt;b&gt;rank3&lt;/b&gt;&lt;/font&gt;" style="text;html=1;align=center;verticalAlign=middle;resizable=0;points=[];autosize=1;strokeColor=none;fillColor=none;" vertex="1" parent="1">
          <mxGeometry x="2990" y="820" width="80" height="40" as="geometry" />
        </mxCell>
        <mxCell id="cyB58QRVmEf7rILU_TA3-26" value="" style="whiteSpace=wrap;html=1;fillColor=none;dashed=1;strokeWidth=3;strokeColor=light-dark(#ce3b3b, #ededed);" vertex="1" parent="1">
          <mxGeometry x="2020" y="250" width="1160" height="250" as="geometry" />
        </mxCell>
        <mxCell id="cyB58QRVmEf7rILU_TA3-42" value="&lt;font style=&quot;font-size: 22px;&quot;&gt;&lt;b&gt;fused_qkv&lt;/b&gt;&lt;/font&gt;" style="text;html=1;align=center;verticalAlign=middle;resizable=0;points=[];autosize=1;strokeColor=none;fillColor=none;" vertex="1" parent="1">
          <mxGeometry x="2160" y="250" width="130" height="40" as="geometry" />
        </mxCell>
        <mxCell id="cyB58QRVmEf7rILU_TA3-43" value="" style="endArrow=none;dashed=1;html=1;dashPattern=1 3;strokeWidth=4;rounded=0;entryX=0.5;entryY=0;entryDx=0;entryDy=0;strokeColor=#FF0000;" edge="1" parent="1" target="cyB58QRVmEf7rILU_TA3-26">
          <mxGeometry width="50" height="50" relative="1" as="geometry">
            <mxPoint x="2600" y="510" as="sourcePoint" />
            <mxPoint x="2810" y="620" as="targetPoint" />
          </mxGeometry>
        </mxCell>
        <mxCell id="cyB58QRVmEf7rILU_TA3-44" value="" style="shape=table;startSize=0;container=1;collapsible=0;childLayout=tableLayout;fillColor=#fff2cc;strokeColor=#d6b656;fontSize=18;fontStyle=1" vertex="1" parent="1">
          <mxGeometry x="830" y="800" width="266" height="160" as="geometry" />
        </mxCell>
        <mxCell id="cyB58QRVmEf7rILU_TA3-45" value="" style="shape=tableRow;horizontal=0;startSize=0;swimlaneHead=0;swimlaneBody=0;strokeColor=inherit;top=0;left=0;bottom=0;right=0;collapsible=0;dropTarget=0;fillColor=none;points=[[0,0.5],[1,0.5]];portConstraint=eastwest;fontSize=18;fontStyle=1" vertex="1" parent="cyB58QRVmEf7rILU_TA3-44">
          <mxGeometry width="266" height="53" as="geometry" />
        </mxCell>
        <mxCell id="cyB58QRVmEf7rILU_TA3-46" value="q1" style="shape=partialRectangle;html=1;whiteSpace=wrap;connectable=0;strokeColor=#9673a6;overflow=hidden;fillColor=#e1d5e7;top=0;left=0;bottom=0;right=0;pointerEvents=1;fontSize=18;fontStyle=1" vertex="1" parent="cyB58QRVmEf7rILU_TA3-45">
          <mxGeometry width="34" height="53" as="geometry">
            <mxRectangle width="34" height="53" as="alternateBounds" />
          </mxGeometry>
        </mxCell>
        <mxCell id="cyB58QRVmEf7rILU_TA3-47" value="q2" style="shape=partialRectangle;html=1;whiteSpace=wrap;connectable=0;overflow=hidden;top=0;left=0;bottom=0;right=0;pointerEvents=1;fillColor=#e1d5e7;strokeColor=#9673a6;fontSize=18;fontStyle=1" vertex="1" parent="cyB58QRVmEf7rILU_TA3-45">
          <mxGeometry x="34" width="33" height="53" as="geometry">
            <mxRectangle width="33" height="53" as="alternateBounds" />
          </mxGeometry>
        </mxCell>
        <mxCell id="cyB58QRVmEf7rILU_TA3-48" value="k1" style="shape=partialRectangle;html=1;whiteSpace=wrap;connectable=0;strokeColor=#9673a6;overflow=hidden;fillColor=#e1d5e7;top=0;left=0;bottom=0;right=0;pointerEvents=1;fontSize=18;fontStyle=1" vertex="1" parent="cyB58QRVmEf7rILU_TA3-45">
          <mxGeometry x="67" width="34" height="53" as="geometry">
            <mxRectangle width="34" height="53" as="alternateBounds" />
          </mxGeometry>
        </mxCell>
        <mxCell id="cyB58QRVmEf7rILU_TA3-49" value="v1" style="shape=partialRectangle;html=1;whiteSpace=wrap;connectable=0;strokeColor=#9673a6;overflow=hidden;fillColor=#e1d5e7;top=0;left=0;bottom=0;right=0;pointerEvents=1;fontSize=18;fontStyle=1" vertex="1" parent="cyB58QRVmEf7rILU_TA3-45">
          <mxGeometry x="101" width="32" height="53" as="geometry">
            <mxRectangle width="32" height="53" as="alternateBounds" />
          </mxGeometry>
        </mxCell>
        <mxCell id="cyB58QRVmEf7rILU_TA3-50" value="q3" style="shape=partialRectangle;html=1;whiteSpace=wrap;connectable=0;strokeColor=#82b366;overflow=hidden;fillColor=#d5e8d4;top=0;left=0;bottom=0;right=0;pointerEvents=1;fontSize=18;fontStyle=1" vertex="1" parent="cyB58QRVmEf7rILU_TA3-45">
          <mxGeometry x="133" width="34" height="53" as="geometry">
            <mxRectangle width="34" height="53" as="alternateBounds" />
          </mxGeometry>
        </mxCell>
        <mxCell id="cyB58QRVmEf7rILU_TA3-51" value="q4" style="shape=partialRectangle;html=1;whiteSpace=wrap;connectable=0;strokeColor=#82b366;overflow=hidden;fillColor=#d5e8d4;top=0;left=0;bottom=0;right=0;pointerEvents=1;fontSize=18;fontStyle=1" vertex="1" parent="cyB58QRVmEf7rILU_TA3-45">
          <mxGeometry x="167" width="33" height="53" as="geometry">
            <mxRectangle width="33" height="53" as="alternateBounds" />
          </mxGeometry>
        </mxCell>
        <mxCell id="cyB58QRVmEf7rILU_TA3-139" value="k2" style="shape=partialRectangle;html=1;whiteSpace=wrap;connectable=0;strokeColor=#82b366;overflow=hidden;fillColor=#d5e8d4;top=0;left=0;bottom=0;right=0;pointerEvents=1;fontSize=18;fontStyle=1" vertex="1" parent="cyB58QRVmEf7rILU_TA3-45">
          <mxGeometry x="200" width="33" height="53" as="geometry">
            <mxRectangle width="33" height="53" as="alternateBounds" />
          </mxGeometry>
        </mxCell>
        <mxCell id="cyB58QRVmEf7rILU_TA3-142" value="v2" style="shape=partialRectangle;html=1;whiteSpace=wrap;connectable=0;strokeColor=#82b366;overflow=hidden;fillColor=#d5e8d4;top=0;left=0;bottom=0;right=0;pointerEvents=1;fontSize=18;fontStyle=1" vertex="1" parent="cyB58QRVmEf7rILU_TA3-45">
          <mxGeometry x="233" width="33" height="53" as="geometry">
            <mxRectangle width="33" height="53" as="alternateBounds" />
          </mxGeometry>
        </mxCell>
        <mxCell id="cyB58QRVmEf7rILU_TA3-52" value="" style="shape=tableRow;horizontal=0;startSize=0;swimlaneHead=0;swimlaneBody=0;strokeColor=inherit;top=0;left=0;bottom=0;right=0;collapsible=0;dropTarget=0;fillColor=none;points=[[0,0.5],[1,0.5]];portConstraint=eastwest;fontSize=18;fontStyle=1" vertex="1" parent="cyB58QRVmEf7rILU_TA3-44">
          <mxGeometry y="53" width="266" height="54" as="geometry" />
        </mxCell>
        <mxCell id="cyB58QRVmEf7rILU_TA3-53" value="" style="shape=partialRectangle;html=1;whiteSpace=wrap;connectable=0;strokeColor=inherit;overflow=hidden;fillColor=none;top=0;left=0;bottom=0;right=0;pointerEvents=1;fontSize=18;fontStyle=1" vertex="1" parent="cyB58QRVmEf7rILU_TA3-52">
          <mxGeometry width="34" height="54" as="geometry">
            <mxRectangle width="34" height="54" as="alternateBounds" />
          </mxGeometry>
        </mxCell>
        <mxCell id="cyB58QRVmEf7rILU_TA3-54" value="" style="shape=partialRectangle;html=1;whiteSpace=wrap;connectable=0;strokeColor=inherit;overflow=hidden;fillColor=none;top=0;left=0;bottom=0;right=0;pointerEvents=1;fontSize=18;fontStyle=1" vertex="1" parent="cyB58QRVmEf7rILU_TA3-52">
          <mxGeometry x="34" width="33" height="54" as="geometry">
            <mxRectangle width="33" height="54" as="alternateBounds" />
          </mxGeometry>
        </mxCell>
        <mxCell id="cyB58QRVmEf7rILU_TA3-55" value="" style="shape=partialRectangle;html=1;whiteSpace=wrap;connectable=0;strokeColor=inherit;overflow=hidden;fillColor=none;top=0;left=0;bottom=0;right=0;pointerEvents=1;fontSize=18;fontStyle=1" vertex="1" parent="cyB58QRVmEf7rILU_TA3-52">
          <mxGeometry x="67" width="34" height="54" as="geometry">
            <mxRectangle width="34" height="54" as="alternateBounds" />
          </mxGeometry>
        </mxCell>
        <mxCell id="cyB58QRVmEf7rILU_TA3-56" value="" style="shape=partialRectangle;html=1;whiteSpace=wrap;connectable=0;strokeColor=inherit;overflow=hidden;fillColor=none;top=0;left=0;bottom=0;right=0;pointerEvents=1;fontSize=18;fontStyle=1" vertex="1" parent="cyB58QRVmEf7rILU_TA3-52">
          <mxGeometry x="101" width="32" height="54" as="geometry">
            <mxRectangle width="32" height="54" as="alternateBounds" />
          </mxGeometry>
        </mxCell>
        <mxCell id="cyB58QRVmEf7rILU_TA3-57" value="" style="shape=partialRectangle;html=1;whiteSpace=wrap;connectable=0;strokeColor=inherit;overflow=hidden;fillColor=none;top=0;left=0;bottom=0;right=0;pointerEvents=1;fontSize=18;fontStyle=1" vertex="1" parent="cyB58QRVmEf7rILU_TA3-52">
          <mxGeometry x="133" width="34" height="54" as="geometry">
            <mxRectangle width="34" height="54" as="alternateBounds" />
          </mxGeometry>
        </mxCell>
        <mxCell id="cyB58QRVmEf7rILU_TA3-58" value="" style="shape=partialRectangle;html=1;whiteSpace=wrap;connectable=0;strokeColor=inherit;overflow=hidden;fillColor=none;top=0;left=0;bottom=0;right=0;pointerEvents=1;fontSize=18;fontStyle=1" vertex="1" parent="cyB58QRVmEf7rILU_TA3-52">
          <mxGeometry x="167" width="33" height="54" as="geometry">
            <mxRectangle width="33" height="54" as="alternateBounds" />
          </mxGeometry>
        </mxCell>
        <mxCell id="cyB58QRVmEf7rILU_TA3-140" style="shape=partialRectangle;html=1;whiteSpace=wrap;connectable=0;strokeColor=inherit;overflow=hidden;fillColor=none;top=0;left=0;bottom=0;right=0;pointerEvents=1;fontSize=18;fontStyle=1" vertex="1" parent="cyB58QRVmEf7rILU_TA3-52">
          <mxGeometry x="200" width="33" height="54" as="geometry">
            <mxRectangle width="33" height="54" as="alternateBounds" />
          </mxGeometry>
        </mxCell>
        <mxCell id="cyB58QRVmEf7rILU_TA3-143" style="shape=partialRectangle;html=1;whiteSpace=wrap;connectable=0;strokeColor=inherit;overflow=hidden;fillColor=none;top=0;left=0;bottom=0;right=0;pointerEvents=1;fontSize=18;fontStyle=1" vertex="1" parent="cyB58QRVmEf7rILU_TA3-52">
          <mxGeometry x="233" width="33" height="54" as="geometry">
            <mxRectangle width="33" height="54" as="alternateBounds" />
          </mxGeometry>
        </mxCell>
        <mxCell id="cyB58QRVmEf7rILU_TA3-59" value="" style="shape=tableRow;horizontal=0;startSize=0;swimlaneHead=0;swimlaneBody=0;strokeColor=inherit;top=0;left=0;bottom=0;right=0;collapsible=0;dropTarget=0;fillColor=none;points=[[0,0.5],[1,0.5]];portConstraint=eastwest;fontSize=18;fontStyle=1" vertex="1" parent="cyB58QRVmEf7rILU_TA3-44">
          <mxGeometry y="107" width="266" height="53" as="geometry" />
        </mxCell>
        <mxCell id="cyB58QRVmEf7rILU_TA3-60" value="" style="shape=partialRectangle;html=1;whiteSpace=wrap;connectable=0;strokeColor=inherit;overflow=hidden;fillColor=none;top=0;left=0;bottom=0;right=0;pointerEvents=1;fontSize=18;fontStyle=1" vertex="1" parent="cyB58QRVmEf7rILU_TA3-59">
          <mxGeometry width="34" height="53" as="geometry">
            <mxRectangle width="34" height="53" as="alternateBounds" />
          </mxGeometry>
        </mxCell>
        <mxCell id="cyB58QRVmEf7rILU_TA3-61" value="" style="shape=partialRectangle;html=1;whiteSpace=wrap;connectable=0;strokeColor=inherit;overflow=hidden;fillColor=none;top=0;left=0;bottom=0;right=0;pointerEvents=1;fontSize=18;fontStyle=1" vertex="1" parent="cyB58QRVmEf7rILU_TA3-59">
          <mxGeometry x="34" width="33" height="53" as="geometry">
            <mxRectangle width="33" height="53" as="alternateBounds" />
          </mxGeometry>
        </mxCell>
        <mxCell id="cyB58QRVmEf7rILU_TA3-62" value="" style="shape=partialRectangle;html=1;whiteSpace=wrap;connectable=0;strokeColor=inherit;overflow=hidden;fillColor=none;top=0;left=0;bottom=0;right=0;pointerEvents=1;fontSize=18;fontStyle=1" vertex="1" parent="cyB58QRVmEf7rILU_TA3-59">
          <mxGeometry x="67" width="34" height="53" as="geometry">
            <mxRectangle width="34" height="53" as="alternateBounds" />
          </mxGeometry>
        </mxCell>
        <mxCell id="cyB58QRVmEf7rILU_TA3-63" value="" style="shape=partialRectangle;html=1;whiteSpace=wrap;connectable=0;strokeColor=inherit;overflow=hidden;fillColor=none;top=0;left=0;bottom=0;right=0;pointerEvents=1;fontSize=18;fontStyle=1" vertex="1" parent="cyB58QRVmEf7rILU_TA3-59">
          <mxGeometry x="101" width="32" height="53" as="geometry">
            <mxRectangle width="32" height="53" as="alternateBounds" />
          </mxGeometry>
        </mxCell>
        <mxCell id="cyB58QRVmEf7rILU_TA3-64" value="" style="shape=partialRectangle;html=1;whiteSpace=wrap;connectable=0;strokeColor=inherit;overflow=hidden;fillColor=none;top=0;left=0;bottom=0;right=0;pointerEvents=1;fontSize=18;fontStyle=1" vertex="1" parent="cyB58QRVmEf7rILU_TA3-59">
          <mxGeometry x="133" width="34" height="53" as="geometry">
            <mxRectangle width="34" height="53" as="alternateBounds" />
          </mxGeometry>
        </mxCell>
        <mxCell id="cyB58QRVmEf7rILU_TA3-65" value="" style="shape=partialRectangle;html=1;whiteSpace=wrap;connectable=0;strokeColor=inherit;overflow=hidden;fillColor=none;top=0;left=0;bottom=0;right=0;pointerEvents=1;fontSize=18;fontStyle=1" vertex="1" parent="cyB58QRVmEf7rILU_TA3-59">
          <mxGeometry x="167" width="33" height="53" as="geometry">
            <mxRectangle width="33" height="53" as="alternateBounds" />
          </mxGeometry>
        </mxCell>
        <mxCell id="cyB58QRVmEf7rILU_TA3-141" style="shape=partialRectangle;html=1;whiteSpace=wrap;connectable=0;strokeColor=inherit;overflow=hidden;fillColor=none;top=0;left=0;bottom=0;right=0;pointerEvents=1;fontSize=18;fontStyle=1" vertex="1" parent="cyB58QRVmEf7rILU_TA3-59">
          <mxGeometry x="200" width="33" height="53" as="geometry">
            <mxRectangle width="33" height="53" as="alternateBounds" />
          </mxGeometry>
        </mxCell>
        <mxCell id="cyB58QRVmEf7rILU_TA3-144" style="shape=partialRectangle;html=1;whiteSpace=wrap;connectable=0;strokeColor=inherit;overflow=hidden;fillColor=none;top=0;left=0;bottom=0;right=0;pointerEvents=1;fontSize=18;fontStyle=1" vertex="1" parent="cyB58QRVmEf7rILU_TA3-59">
          <mxGeometry x="233" width="33" height="53" as="geometry">
            <mxRectangle width="33" height="53" as="alternateBounds" />
          </mxGeometry>
        </mxCell>
        <mxCell id="cyB58QRVmEf7rILU_TA3-66" value="" style="shape=curlyBracket;whiteSpace=wrap;html=1;rounded=1;labelPosition=left;verticalLabelPosition=middle;align=right;verticalAlign=middle;" vertex="1" parent="1">
          <mxGeometry x="750" y="320" width="20" height="120" as="geometry" />
        </mxCell>
        <mxCell id="cyB58QRVmEf7rILU_TA3-67" value="&lt;font style=&quot;font-size: 22px;&quot;&gt;&lt;b&gt;hidden_state&lt;/b&gt;&lt;/font&gt;" style="text;html=1;align=center;verticalAlign=middle;resizable=0;points=[];autosize=1;strokeColor=none;fillColor=none;" vertex="1" parent="1">
          <mxGeometry x="595" y="355" width="160" height="40" as="geometry" />
        </mxCell>
        <mxCell id="cyB58QRVmEf7rILU_TA3-68" value="" style="shape=curlyBracket;whiteSpace=wrap;html=1;rounded=1;labelPosition=left;verticalLabelPosition=middle;align=right;verticalAlign=middle;rotation=-90;" vertex="1" parent="1">
          <mxGeometry x="1190" y="220" width="20" height="480" as="geometry" />
        </mxCell>
        <mxCell id="cyB58QRVmEf7rILU_TA3-69" value="&lt;font style=&quot;font-size: 22px;&quot;&gt;&lt;b&gt;num_head*head_dim+k_v_nums*head_dim*2&lt;/b&gt;&lt;/font&gt;" style="text;html=1;align=center;verticalAlign=middle;resizable=0;points=[];autosize=1;strokeColor=none;fillColor=none;" vertex="1" parent="1">
          <mxGeometry x="935" y="460" width="500" height="40" as="geometry" />
        </mxCell>
        <mxCell id="cyB58QRVmEf7rILU_TA3-70" value="&lt;font style=&quot;font-size: 22px;&quot;&gt;&lt;b&gt;head_dim=1 ; num_head=8 ;&amp;nbsp;&lt;/b&gt;&lt;b&gt;num_kv_heads&lt;/b&gt;&lt;b&gt;=4;k_v_groups=2(即每2个q匹配1对kv)&lt;/b&gt;&lt;/font&gt;" style="text;html=1;align=center;verticalAlign=middle;resizable=0;points=[];autosize=1;strokeColor=none;fillColor=none;" vertex="1" parent="1">
          <mxGeometry x="772" y="560" width="870" height="40" as="geometry" />
        </mxCell>
        <mxCell id="cyB58QRVmEf7rILU_TA3-71" value="" style="group;fontSize=18;fontStyle=1" vertex="1" connectable="0" parent="1">
          <mxGeometry x="1280" y="800" width="243" height="160" as="geometry" />
        </mxCell>
        <mxCell id="cyB58QRVmEf7rILU_TA3-74" value="9" style="rounded=0;whiteSpace=wrap;html=1;fillColor=#fff2cc;strokeColor=#d6b656;fontSize=18;fontStyle=1" vertex="1" parent="cyB58QRVmEf7rILU_TA3-71">
          <mxGeometry x="12.999999999999986" width="43" height="160" as="geometry" />
        </mxCell>
        <mxCell id="cyB58QRVmEf7rILU_TA3-75" value="10" style="rounded=0;whiteSpace=wrap;html=1;fillColor=#fff2cc;strokeColor=#d6b656;fontSize=18;fontStyle=1" vertex="1" parent="cyB58QRVmEf7rILU_TA3-71">
          <mxGeometry x="55.999999999999986" width="39.99999999999999" height="160" as="geometry" />
        </mxCell>
        <mxCell id="cyB58QRVmEf7rILU_TA3-76" value="11" style="rounded=0;whiteSpace=wrap;html=1;fillColor=#fff2cc;strokeColor=#d6b656;fontSize=18;fontStyle=1" vertex="1" parent="cyB58QRVmEf7rILU_TA3-71">
          <mxGeometry x="96" width="39.99999999999999" height="160" as="geometry" />
        </mxCell>
        <mxCell id="cyB58QRVmEf7rILU_TA3-77" value="12" style="rounded=0;whiteSpace=wrap;html=1;fillColor=#fff2cc;strokeColor=#d6b656;fontSize=18;fontStyle=1" vertex="1" parent="cyB58QRVmEf7rILU_TA3-71">
          <mxGeometry x="136" width="39.99999999999999" height="160" as="geometry" />
        </mxCell>
        <mxCell id="cyB58QRVmEf7rILU_TA3-78" value="" style="shape=singleArrow;direction=south;whiteSpace=wrap;html=1;fillColor=#e1d5e7;strokeColor=#9673a6;" vertex="1" parent="1">
          <mxGeometry x="1160" y="610" width="60" height="125" as="geometry" />
        </mxCell>
        <mxCell id="cyB58QRVmEf7rILU_TA3-79" value="&lt;font style=&quot;font-size: 22px;&quot;&gt;&lt;b&gt;先切分，后定义q_state、k_state、v_state&lt;/b&gt;&lt;/font&gt;" style="text;html=1;align=center;verticalAlign=middle;resizable=0;points=[];autosize=1;strokeColor=none;fillColor=none;" vertex="1" parent="1">
          <mxGeometry x="1210" y="645" width="450" height="40" as="geometry" />
        </mxCell>
        <mxCell id="cyB58QRVmEf7rILU_TA3-80" value="&lt;font style=&quot;font-size: 22px;&quot;&gt;&lt;b&gt;num_head=4 ;&amp;nbsp;&lt;/b&gt;&lt;b&gt;num_kv_heads&lt;/b&gt;&lt;b&gt;=2&lt;/b&gt;&lt;/font&gt;" style="text;html=1;align=center;verticalAlign=middle;resizable=0;points=[];autosize=1;strokeColor=none;fillColor=none;" vertex="1" parent="1">
          <mxGeometry x="800" y="1020" width="360" height="40" as="geometry" />
        </mxCell>
        <mxCell id="cyB58QRVmEf7rILU_TA3-81" value="&lt;font style=&quot;font-size: 22px;&quot;&gt;&lt;b&gt;num_head=4 ;&amp;nbsp;&lt;/b&gt;&lt;b&gt;num_kv_heads&lt;/b&gt;&lt;b&gt;=2&lt;/b&gt;&lt;/font&gt;" style="text;html=1;align=center;verticalAlign=middle;resizable=0;points=[];autosize=1;strokeColor=none;fillColor=none;" vertex="1" parent="1">
          <mxGeometry x="1267" y="1020" width="360" height="40" as="geometry" />
        </mxCell>
        <mxCell id="cyB58QRVmEf7rILU_TA3-82" value="" style="shape=table;startSize=0;container=1;collapsible=0;childLayout=tableLayout;" vertex="1" parent="1">
          <mxGeometry x="380" y="850" width="226" height="70" as="geometry" />
        </mxCell>
        <mxCell id="cyB58QRVmEf7rILU_TA3-83" value="" style="shape=tableRow;horizontal=0;startSize=0;swimlaneHead=0;swimlaneBody=0;strokeColor=inherit;top=0;left=0;bottom=0;right=0;collapsible=0;dropTarget=0;fillColor=none;points=[[0,0.5],[1,0.5]];portConstraint=eastwest;" vertex="1" parent="cyB58QRVmEf7rILU_TA3-82">
          <mxGeometry width="226" height="35" as="geometry" />
        </mxCell>
        <mxCell id="cyB58QRVmEf7rILU_TA3-84" value="" style="shape=partialRectangle;html=1;whiteSpace=wrap;connectable=0;strokeColor=inherit;overflow=hidden;fillColor=none;top=0;left=0;bottom=0;right=0;pointerEvents=1;" vertex="1" parent="cyB58QRVmEf7rILU_TA3-83">
          <mxGeometry width="56" height="35" as="geometry">
            <mxRectangle width="56" height="35" as="alternateBounds" />
          </mxGeometry>
        </mxCell>
        <mxCell id="cyB58QRVmEf7rILU_TA3-85" value="" style="shape=partialRectangle;html=1;whiteSpace=wrap;connectable=0;strokeColor=inherit;overflow=hidden;fillColor=none;top=0;left=0;bottom=0;right=0;pointerEvents=1;" vertex="1" parent="cyB58QRVmEf7rILU_TA3-83">
          <mxGeometry x="56" width="58" height="35" as="geometry">
            <mxRectangle width="58" height="35" as="alternateBounds" />
          </mxGeometry>
        </mxCell>
        <mxCell id="cyB58QRVmEf7rILU_TA3-86" value="" style="shape=partialRectangle;html=1;whiteSpace=wrap;connectable=0;strokeColor=inherit;overflow=hidden;fillColor=none;top=0;left=0;bottom=0;right=0;pointerEvents=1;" vertex="1" parent="cyB58QRVmEf7rILU_TA3-83">
          <mxGeometry x="114" width="56" height="35" as="geometry">
            <mxRectangle width="56" height="35" as="alternateBounds" />
          </mxGeometry>
        </mxCell>
        <mxCell id="cyB58QRVmEf7rILU_TA3-151" style="shape=partialRectangle;html=1;whiteSpace=wrap;connectable=0;strokeColor=inherit;overflow=hidden;fillColor=none;top=0;left=0;bottom=0;right=0;pointerEvents=1;" vertex="1" parent="cyB58QRVmEf7rILU_TA3-83">
          <mxGeometry x="170" width="56" height="35" as="geometry">
            <mxRectangle width="56" height="35" as="alternateBounds" />
          </mxGeometry>
        </mxCell>
        <mxCell id="cyB58QRVmEf7rILU_TA3-87" value="" style="shape=tableRow;horizontal=0;startSize=0;swimlaneHead=0;swimlaneBody=0;strokeColor=inherit;top=0;left=0;bottom=0;right=0;collapsible=0;dropTarget=0;fillColor=none;points=[[0,0.5],[1,0.5]];portConstraint=eastwest;" vertex="1" parent="cyB58QRVmEf7rILU_TA3-82">
          <mxGeometry y="35" width="226" height="35" as="geometry" />
        </mxCell>
        <mxCell id="cyB58QRVmEf7rILU_TA3-88" value="" style="shape=partialRectangle;html=1;whiteSpace=wrap;connectable=0;strokeColor=inherit;overflow=hidden;fillColor=none;top=0;left=0;bottom=0;right=0;pointerEvents=1;" vertex="1" parent="cyB58QRVmEf7rILU_TA3-87">
          <mxGeometry width="56" height="35" as="geometry">
            <mxRectangle width="56" height="35" as="alternateBounds" />
          </mxGeometry>
        </mxCell>
        <mxCell id="cyB58QRVmEf7rILU_TA3-89" value="" style="shape=partialRectangle;html=1;whiteSpace=wrap;connectable=0;strokeColor=inherit;overflow=hidden;fillColor=none;top=0;left=0;bottom=0;right=0;pointerEvents=1;" vertex="1" parent="cyB58QRVmEf7rILU_TA3-87">
          <mxGeometry x="56" width="58" height="35" as="geometry">
            <mxRectangle width="58" height="35" as="alternateBounds" />
          </mxGeometry>
        </mxCell>
        <mxCell id="cyB58QRVmEf7rILU_TA3-90" value="" style="shape=partialRectangle;html=1;whiteSpace=wrap;connectable=0;strokeColor=inherit;overflow=hidden;fillColor=none;top=0;left=0;bottom=0;right=0;pointerEvents=1;" vertex="1" parent="cyB58QRVmEf7rILU_TA3-87">
          <mxGeometry x="114" width="56" height="35" as="geometry">
            <mxRectangle width="56" height="35" as="alternateBounds" />
          </mxGeometry>
        </mxCell>
        <mxCell id="cyB58QRVmEf7rILU_TA3-152" style="shape=partialRectangle;html=1;whiteSpace=wrap;connectable=0;strokeColor=inherit;overflow=hidden;fillColor=none;top=0;left=0;bottom=0;right=0;pointerEvents=1;" vertex="1" parent="cyB58QRVmEf7rILU_TA3-87">
          <mxGeometry x="170" width="56" height="35" as="geometry">
            <mxRectangle width="56" height="35" as="alternateBounds" />
          </mxGeometry>
        </mxCell>
        <mxCell id="cyB58QRVmEf7rILU_TA3-91" style="edgeStyle=orthogonalEdgeStyle;rounded=0;orthogonalLoop=1;jettySize=auto;html=1;exitX=0;exitY=0.5;exitDx=0;exitDy=0;entryX=0.474;entryY=-0.006;entryDx=0;entryDy=0;entryPerimeter=0;" edge="1" parent="1" source="cyB58QRVmEf7rILU_TA3-45" target="cyB58QRVmEf7rILU_TA3-83">
          <mxGeometry relative="1" as="geometry" />
        </mxCell>
        <mxCell id="cyB58QRVmEf7rILU_TA3-92" value="&lt;font style=&quot;font-size: 22px;&quot;&gt;&lt;b&gt;对最后一维reshape&lt;/b&gt;&lt;/font&gt;" style="text;html=1;align=center;verticalAlign=middle;resizable=0;points=[];autosize=1;strokeColor=none;fillColor=none;" vertex="1" parent="1">
          <mxGeometry x="470" y="780" width="220" height="40" as="geometry" />
        </mxCell>
        <mxCell id="cyB58QRVmEf7rILU_TA3-93" value="" style="shape=curlyBracket;whiteSpace=wrap;html=1;rounded=1;labelPosition=left;verticalLabelPosition=middle;align=right;verticalAlign=middle;" vertex="1" parent="1">
          <mxGeometry x="350" y="845" width="20" height="80" as="geometry" />
        </mxCell>
        <mxCell id="cyB58QRVmEf7rILU_TA3-94" value="&lt;font style=&quot;font-size: 22px;&quot;&gt;&lt;b&gt;num_kv_heads&lt;/b&gt;&lt;/font&gt;" style="text;html=1;align=center;verticalAlign=middle;resizable=0;points=[];autosize=1;strokeColor=none;fillColor=none;" vertex="1" parent="1">
          <mxGeometry x="155" y="865" width="180" height="40" as="geometry" />
        </mxCell>
        <mxCell id="cyB58QRVmEf7rILU_TA3-95" value="" style="shape=singleArrow;direction=south;whiteSpace=wrap;html=1;fillColor=#e1d5e7;strokeColor=#9673a6;" vertex="1" parent="1">
          <mxGeometry x="435" y="925" width="45" height="70" as="geometry" />
        </mxCell>
        <mxCell id="cyB58QRVmEf7rILU_TA3-96" value="&lt;font style=&quot;font-size: 22px;&quot;&gt;&lt;b&gt;最后一维切成三份&lt;/b&gt;&lt;/font&gt;" style="text;html=1;align=center;verticalAlign=middle;resizable=0;points=[];autosize=1;strokeColor=none;fillColor=none;" vertex="1" parent="1">
          <mxGeometry x="470" y="930" width="200" height="40" as="geometry" />
        </mxCell>
        <mxCell id="cyB58QRVmEf7rILU_TA3-97" style="edgeStyle=orthogonalEdgeStyle;rounded=0;orthogonalLoop=1;jettySize=auto;html=1;exitX=1;exitY=0.5;exitDx=0;exitDy=0;entryX=0;entryY=0.25;entryDx=0;entryDy=0;" edge="1" parent="1" source="cyB58QRVmEf7rILU_TA3-98" target="cyB58QRVmEf7rILU_TA3-44">
          <mxGeometry relative="1" as="geometry" />
        </mxCell>
        <mxCell id="cyB58QRVmEf7rILU_TA3-98" value="" style="shape=table;startSize=0;container=1;collapsible=0;childLayout=tableLayout;fontSize=18;fontStyle=1" vertex="1" parent="1">
          <mxGeometry x="370" y="1010" width="226" height="70" as="geometry" />
        </mxCell>
        <mxCell id="cyB58QRVmEf7rILU_TA3-99" value="" style="shape=tableRow;horizontal=0;startSize=0;swimlaneHead=0;swimlaneBody=0;strokeColor=inherit;top=0;left=0;bottom=0;right=0;collapsible=0;dropTarget=0;fillColor=none;points=[[0,0.5],[1,0.5]];portConstraint=eastwest;fontSize=18;fontStyle=1" vertex="1" parent="cyB58QRVmEf7rILU_TA3-98">
          <mxGeometry width="226" height="35" as="geometry" />
        </mxCell>
        <mxCell id="cyB58QRVmEf7rILU_TA3-155" value="q1" style="shape=partialRectangle;html=1;whiteSpace=wrap;connectable=0;strokeColor=#d79b00;overflow=hidden;fillColor=#ffe6cc;top=0;left=0;bottom=0;right=0;pointerEvents=1;fontSize=18;fontStyle=1" vertex="1" parent="cyB58QRVmEf7rILU_TA3-99">
          <mxGeometry width="56" height="35" as="geometry">
            <mxRectangle width="56" height="35" as="alternateBounds" />
          </mxGeometry>
        </mxCell>
        <mxCell id="cyB58QRVmEf7rILU_TA3-100" value="q2" style="shape=partialRectangle;html=1;whiteSpace=wrap;connectable=0;strokeColor=#d79b00;overflow=hidden;fillColor=#ffe6cc;top=0;left=0;bottom=0;right=0;pointerEvents=1;fontSize=18;fontStyle=1" vertex="1" parent="cyB58QRVmEf7rILU_TA3-99">
          <mxGeometry x="56" width="56" height="35" as="geometry">
            <mxRectangle width="56" height="35" as="alternateBounds" />
          </mxGeometry>
        </mxCell>
        <mxCell id="cyB58QRVmEf7rILU_TA3-101" value="k1" style="shape=partialRectangle;html=1;whiteSpace=wrap;connectable=0;strokeColor=#0e8088;overflow=hidden;fillColor=#b0e3e6;top=0;left=0;bottom=0;right=0;pointerEvents=1;fontSize=18;fontStyle=1" vertex="1" parent="cyB58QRVmEf7rILU_TA3-99">
          <mxGeometry x="112" width="58" height="35" as="geometry">
            <mxRectangle width="58" height="35" as="alternateBounds" />
          </mxGeometry>
        </mxCell>
        <mxCell id="cyB58QRVmEf7rILU_TA3-102" value="v1" style="shape=partialRectangle;html=1;whiteSpace=wrap;connectable=0;strokeColor=#ae4132;overflow=hidden;fillColor=#fad9d5;top=0;left=0;bottom=0;right=0;pointerEvents=1;fontSize=18;fontStyle=1" vertex="1" parent="cyB58QRVmEf7rILU_TA3-99">
          <mxGeometry x="170" width="56" height="35" as="geometry">
            <mxRectangle width="56" height="35" as="alternateBounds" />
          </mxGeometry>
        </mxCell>
        <mxCell id="cyB58QRVmEf7rILU_TA3-103" value="" style="shape=tableRow;horizontal=0;startSize=0;swimlaneHead=0;swimlaneBody=0;strokeColor=inherit;top=0;left=0;bottom=0;right=0;collapsible=0;dropTarget=0;fillColor=none;points=[[0,0.5],[1,0.5]];portConstraint=eastwest;fontSize=18;fontStyle=1" vertex="1" parent="cyB58QRVmEf7rILU_TA3-98">
          <mxGeometry y="35" width="226" height="35" as="geometry" />
        </mxCell>
        <mxCell id="cyB58QRVmEf7rILU_TA3-156" value="q3" style="shape=partialRectangle;html=1;whiteSpace=wrap;connectable=0;strokeColor=#d79b00;overflow=hidden;fillColor=#ffe6cc;top=0;left=0;bottom=0;right=0;pointerEvents=1;fontSize=18;fontStyle=1" vertex="1" parent="cyB58QRVmEf7rILU_TA3-103">
          <mxGeometry width="56" height="35" as="geometry">
            <mxRectangle width="56" height="35" as="alternateBounds" />
          </mxGeometry>
        </mxCell>
        <mxCell id="cyB58QRVmEf7rILU_TA3-104" value="q4" style="shape=partialRectangle;html=1;whiteSpace=wrap;connectable=0;strokeColor=#d79b00;overflow=hidden;fillColor=#ffe6cc;top=0;left=0;bottom=0;right=0;pointerEvents=1;fontSize=18;fontStyle=1" vertex="1" parent="cyB58QRVmEf7rILU_TA3-103">
          <mxGeometry x="56" width="56" height="35" as="geometry">
            <mxRectangle width="56" height="35" as="alternateBounds" />
          </mxGeometry>
        </mxCell>
        <mxCell id="cyB58QRVmEf7rILU_TA3-105" value="k2" style="shape=partialRectangle;html=1;whiteSpace=wrap;connectable=0;strokeColor=#0e8088;overflow=hidden;fillColor=#b0e3e6;top=0;left=0;bottom=0;right=0;pointerEvents=1;fontSize=18;fontStyle=1" vertex="1" parent="cyB58QRVmEf7rILU_TA3-103">
          <mxGeometry x="112" width="58" height="35" as="geometry">
            <mxRectangle width="58" height="35" as="alternateBounds" />
          </mxGeometry>
        </mxCell>
        <mxCell id="cyB58QRVmEf7rILU_TA3-106" value="v2" style="shape=partialRectangle;html=1;whiteSpace=wrap;connectable=0;strokeColor=#ae4132;overflow=hidden;fillColor=#fad9d5;top=0;left=0;bottom=0;right=0;pointerEvents=1;fontSize=18;fontStyle=1" vertex="1" parent="cyB58QRVmEf7rILU_TA3-103">
          <mxGeometry x="170" width="56" height="35" as="geometry">
            <mxRectangle width="56" height="35" as="alternateBounds" />
          </mxGeometry>
        </mxCell>
        <mxCell id="cyB58QRVmEf7rILU_TA3-107" value="" style="endArrow=none;dashed=1;html=1;dashPattern=1 3;strokeWidth=4;rounded=0;entryX=0.5;entryY=0;entryDx=0;entryDy=0;strokeColor=#FF0000;" edge="1" parent="1">
          <mxGeometry width="50" height="50" relative="1" as="geometry">
            <mxPoint x="482.29" y="1140" as="sourcePoint" />
            <mxPoint x="482.29" y="995" as="targetPoint" />
          </mxGeometry>
        </mxCell>
        <mxCell id="cyB58QRVmEf7rILU_TA3-108" value="" style="endArrow=none;dashed=1;html=1;dashPattern=1 3;strokeWidth=4;rounded=0;entryX=0.5;entryY=0;entryDx=0;entryDy=0;strokeColor=#FF0000;" edge="1" parent="1">
          <mxGeometry width="50" height="50" relative="1" as="geometry">
            <mxPoint x="540" y="1140" as="sourcePoint" />
            <mxPoint x="540" y="995" as="targetPoint" />
          </mxGeometry>
        </mxCell>
        <mxCell id="cyB58QRVmEf7rILU_TA3-109" value="&lt;font style=&quot;font-size: 22px;&quot;&gt;&lt;b&gt;展平后&lt;/b&gt;&lt;/font&gt;" style="text;html=1;align=center;verticalAlign=middle;resizable=0;points=[];autosize=1;strokeColor=none;fillColor=none;" vertex="1" parent="1">
          <mxGeometry x="620" y="1060" width="90" height="40" as="geometry" />
        </mxCell>
        <mxCell id="cyB58QRVmEf7rILU_TA3-110" value="" style="shape=table;startSize=0;container=1;collapsible=0;childLayout=tableLayout;fillColor=#fff2cc;strokeColor=#d6b656;fontSize=18;fontStyle=1" vertex="1" parent="1">
          <mxGeometry x="2080" y="690" width="174" height="120" as="geometry" />
        </mxCell>
        <mxCell id="cyB58QRVmEf7rILU_TA3-111" value="" style="shape=tableRow;horizontal=0;startSize=0;swimlaneHead=0;swimlaneBody=0;strokeColor=inherit;top=0;left=0;bottom=0;right=0;collapsible=0;dropTarget=0;fillColor=none;points=[[0,0.5],[1,0.5]];portConstraint=eastwest;fontSize=18;fontStyle=1" vertex="1" parent="cyB58QRVmEf7rILU_TA3-110">
          <mxGeometry width="174" height="40" as="geometry" />
        </mxCell>
        <mxCell id="cyB58QRVmEf7rILU_TA3-176" value="q1" style="shape=partialRectangle;html=1;whiteSpace=wrap;connectable=0;strokeColor=#666666;overflow=hidden;fillColor=#f5f5f5;top=0;left=0;bottom=0;right=0;pointerEvents=1;fontColor=#333333;fontSize=18;fontStyle=1" vertex="1" parent="cyB58QRVmEf7rILU_TA3-111">
          <mxGeometry width="44" height="40" as="geometry">
            <mxRectangle width="44" height="40" as="alternateBounds" />
          </mxGeometry>
        </mxCell>
        <mxCell id="cyB58QRVmEf7rILU_TA3-112" value="q2" style="shape=partialRectangle;html=1;whiteSpace=wrap;connectable=0;strokeColor=#666666;overflow=hidden;fillColor=#f5f5f5;top=0;left=0;bottom=0;right=0;pointerEvents=1;fontColor=#333333;fontSize=18;fontStyle=1" vertex="1" parent="cyB58QRVmEf7rILU_TA3-111">
          <mxGeometry x="44" width="44" height="40" as="geometry">
            <mxRectangle width="44" height="40" as="alternateBounds" />
          </mxGeometry>
        </mxCell>
        <mxCell id="cyB58QRVmEf7rILU_TA3-113" value="k1" style="shape=partialRectangle;html=1;whiteSpace=wrap;connectable=0;overflow=hidden;top=0;left=0;bottom=0;right=0;pointerEvents=1;fillColor=#f5f5f5;fontColor=#333333;strokeColor=#666666;fontSize=18;fontStyle=1" vertex="1" parent="cyB58QRVmEf7rILU_TA3-111">
          <mxGeometry x="88" width="42" height="40" as="geometry">
            <mxRectangle width="42" height="40" as="alternateBounds" />
          </mxGeometry>
        </mxCell>
        <mxCell id="cyB58QRVmEf7rILU_TA3-114" value="v1" style="shape=partialRectangle;html=1;whiteSpace=wrap;connectable=0;strokeColor=#666666;overflow=hidden;fillColor=#f5f5f5;top=0;left=0;bottom=0;right=0;pointerEvents=1;fontColor=#333333;fontSize=18;fontStyle=1" vertex="1" parent="cyB58QRVmEf7rILU_TA3-111">
          <mxGeometry x="130" width="44" height="40" as="geometry">
            <mxRectangle width="44" height="40" as="alternateBounds" />
          </mxGeometry>
        </mxCell>
        <mxCell id="cyB58QRVmEf7rILU_TA3-115" value="" style="shape=tableRow;horizontal=0;startSize=0;swimlaneHead=0;swimlaneBody=0;strokeColor=inherit;top=0;left=0;bottom=0;right=0;collapsible=0;dropTarget=0;fillColor=none;points=[[0,0.5],[1,0.5]];portConstraint=eastwest;fontSize=18;fontStyle=1" vertex="1" parent="cyB58QRVmEf7rILU_TA3-110">
          <mxGeometry y="40" width="174" height="40" as="geometry" />
        </mxCell>
        <mxCell id="cyB58QRVmEf7rILU_TA3-177" style="shape=partialRectangle;html=1;whiteSpace=wrap;connectable=0;strokeColor=inherit;overflow=hidden;fillColor=none;top=0;left=0;bottom=0;right=0;pointerEvents=1;fontSize=18;fontStyle=1" vertex="1" parent="cyB58QRVmEf7rILU_TA3-115">
          <mxGeometry width="44" height="40" as="geometry">
            <mxRectangle width="44" height="40" as="alternateBounds" />
          </mxGeometry>
        </mxCell>
        <mxCell id="cyB58QRVmEf7rILU_TA3-116" value="" style="shape=partialRectangle;html=1;whiteSpace=wrap;connectable=0;strokeColor=inherit;overflow=hidden;fillColor=none;top=0;left=0;bottom=0;right=0;pointerEvents=1;fontSize=18;fontStyle=1" vertex="1" parent="cyB58QRVmEf7rILU_TA3-115">
          <mxGeometry x="44" width="44" height="40" as="geometry">
            <mxRectangle width="44" height="40" as="alternateBounds" />
          </mxGeometry>
        </mxCell>
        <mxCell id="cyB58QRVmEf7rILU_TA3-117" value="" style="shape=partialRectangle;html=1;whiteSpace=wrap;connectable=0;strokeColor=inherit;overflow=hidden;fillColor=none;top=0;left=0;bottom=0;right=0;pointerEvents=1;fontSize=18;fontStyle=1" vertex="1" parent="cyB58QRVmEf7rILU_TA3-115">
          <mxGeometry x="88" width="42" height="40" as="geometry">
            <mxRectangle width="42" height="40" as="alternateBounds" />
          </mxGeometry>
        </mxCell>
        <mxCell id="cyB58QRVmEf7rILU_TA3-118" value="" style="shape=partialRectangle;html=1;whiteSpace=wrap;connectable=0;strokeColor=inherit;overflow=hidden;fillColor=none;top=0;left=0;bottom=0;right=0;pointerEvents=1;fontSize=18;fontStyle=1" vertex="1" parent="cyB58QRVmEf7rILU_TA3-115">
          <mxGeometry x="130" width="44" height="40" as="geometry">
            <mxRectangle width="44" height="40" as="alternateBounds" />
          </mxGeometry>
        </mxCell>
        <mxCell id="cyB58QRVmEf7rILU_TA3-119" value="" style="shape=tableRow;horizontal=0;startSize=0;swimlaneHead=0;swimlaneBody=0;strokeColor=inherit;top=0;left=0;bottom=0;right=0;collapsible=0;dropTarget=0;fillColor=none;points=[[0,0.5],[1,0.5]];portConstraint=eastwest;fontSize=18;fontStyle=1" vertex="1" parent="cyB58QRVmEf7rILU_TA3-110">
          <mxGeometry y="80" width="174" height="40" as="geometry" />
        </mxCell>
        <mxCell id="cyB58QRVmEf7rILU_TA3-178" style="shape=partialRectangle;html=1;whiteSpace=wrap;connectable=0;strokeColor=inherit;overflow=hidden;fillColor=none;top=0;left=0;bottom=0;right=0;pointerEvents=1;fontSize=18;fontStyle=1" vertex="1" parent="cyB58QRVmEf7rILU_TA3-119">
          <mxGeometry width="44" height="40" as="geometry">
            <mxRectangle width="44" height="40" as="alternateBounds" />
          </mxGeometry>
        </mxCell>
        <mxCell id="cyB58QRVmEf7rILU_TA3-120" value="" style="shape=partialRectangle;html=1;whiteSpace=wrap;connectable=0;strokeColor=inherit;overflow=hidden;fillColor=none;top=0;left=0;bottom=0;right=0;pointerEvents=1;fontSize=18;fontStyle=1" vertex="1" parent="cyB58QRVmEf7rILU_TA3-119">
          <mxGeometry x="44" width="44" height="40" as="geometry">
            <mxRectangle width="44" height="40" as="alternateBounds" />
          </mxGeometry>
        </mxCell>
        <mxCell id="cyB58QRVmEf7rILU_TA3-121" value="" style="shape=partialRectangle;html=1;whiteSpace=wrap;connectable=0;strokeColor=inherit;overflow=hidden;fillColor=none;top=0;left=0;bottom=0;right=0;pointerEvents=1;fontSize=18;fontStyle=1" vertex="1" parent="cyB58QRVmEf7rILU_TA3-119">
          <mxGeometry x="88" width="42" height="40" as="geometry">
            <mxRectangle width="42" height="40" as="alternateBounds" />
          </mxGeometry>
        </mxCell>
        <mxCell id="cyB58QRVmEf7rILU_TA3-122" value="" style="shape=partialRectangle;html=1;whiteSpace=wrap;connectable=0;strokeColor=inherit;overflow=hidden;fillColor=none;top=0;left=0;bottom=0;right=0;pointerEvents=1;fontSize=18;fontStyle=1" vertex="1" parent="cyB58QRVmEf7rILU_TA3-119">
          <mxGeometry x="130" width="44" height="40" as="geometry">
            <mxRectangle width="44" height="40" as="alternateBounds" />
          </mxGeometry>
        </mxCell>
        <mxCell id="cyB58QRVmEf7rILU_TA3-123" value="5" style="rounded=0;whiteSpace=wrap;html=1;fillColor=#fff2cc;strokeColor=#d6b656;fontSize=18;fontStyle=1" vertex="1" parent="1">
          <mxGeometry x="2361" y="690" width="40" height="120" as="geometry" />
        </mxCell>
        <mxCell id="cyB58QRVmEf7rILU_TA3-124" value="6" style="rounded=0;whiteSpace=wrap;html=1;fillColor=#fff2cc;strokeColor=#d6b656;fontSize=18;fontStyle=1" vertex="1" parent="1">
          <mxGeometry x="2401" y="690" width="40" height="120" as="geometry" />
        </mxCell>
        <mxCell id="cyB58QRVmEf7rILU_TA3-125" value="7" style="rounded=0;whiteSpace=wrap;html=1;fillColor=#fff2cc;strokeColor=#d6b656;fontSize=18;fontStyle=1" vertex="1" parent="1">
          <mxGeometry x="2441" y="690" width="40" height="120" as="geometry" />
        </mxCell>
        <mxCell id="cyB58QRVmEf7rILU_TA3-126" value="9" style="rounded=0;whiteSpace=wrap;html=1;fillColor=#fff2cc;strokeColor=#d6b656;fontSize=18;fontStyle=1" vertex="1" parent="1">
          <mxGeometry x="2645" y="690" width="40" height="120" as="geometry" />
        </mxCell>
        <mxCell id="cyB58QRVmEf7rILU_TA3-127" value="10" style="rounded=0;whiteSpace=wrap;html=1;fillColor=#fff2cc;strokeColor=#d6b656;fontSize=18;fontStyle=1" vertex="1" parent="1">
          <mxGeometry x="2685" y="690" width="40" height="120" as="geometry" />
        </mxCell>
        <mxCell id="cyB58QRVmEf7rILU_TA3-128" value="11" style="rounded=0;whiteSpace=wrap;html=1;fillColor=#fff2cc;strokeColor=#d6b656;fontSize=18;fontStyle=1" vertex="1" parent="1">
          <mxGeometry x="2725" y="690" width="40" height="120" as="geometry" />
        </mxCell>
        <mxCell id="cyB58QRVmEf7rILU_TA3-129" value="13" style="rounded=0;whiteSpace=wrap;html=1;fillColor=#fff2cc;strokeColor=#d6b656;fontSize=18;fontStyle=1" vertex="1" parent="1">
          <mxGeometry x="2940" y="685" width="40" height="120" as="geometry" />
        </mxCell>
        <mxCell id="cyB58QRVmEf7rILU_TA3-130" value="14" style="rounded=0;whiteSpace=wrap;html=1;fillColor=#fff2cc;strokeColor=#d6b656;fontSize=18;fontStyle=1" vertex="1" parent="1">
          <mxGeometry x="2980" y="685" width="40" height="120" as="geometry" />
        </mxCell>
        <mxCell id="cyB58QRVmEf7rILU_TA3-131" value="15" style="rounded=0;whiteSpace=wrap;html=1;fillColor=#fff2cc;strokeColor=#d6b656;fontSize=18;fontStyle=1" vertex="1" parent="1">
          <mxGeometry x="3020" y="685" width="40" height="120" as="geometry" />
        </mxCell>
        <mxCell id="cyB58QRVmEf7rILU_TA3-135" value="2" style="rounded=0;whiteSpace=wrap;html=1;fillColor=#fff2cc;strokeColor=#d6b656;fontSize=18;fontStyle=1" vertex="1" parent="1">
          <mxGeometry x="920" y="320" width="40" height="120" as="geometry" />
        </mxCell>
        <mxCell id="cyB58QRVmEf7rILU_TA3-136" value="1" style="rounded=0;whiteSpace=wrap;html=1;fillColor=#fff2cc;strokeColor=#d6b656;fontSize=18;fontStyle=1" vertex="1" parent="1">
          <mxGeometry x="880" y="320" width="40" height="120" as="geometry" />
        </mxCell>
        <mxCell id="cyB58QRVmEf7rILU_TA3-137" value="15" style="rounded=0;whiteSpace=wrap;html=1;fillColor=#fff2cc;strokeColor=#d6b656;fontSize=18;fontStyle=1" vertex="1" parent="1">
          <mxGeometry x="1440" y="320" width="40" height="120" as="geometry" />
        </mxCell>
        <mxCell id="cyB58QRVmEf7rILU_TA3-138" value="16" style="rounded=0;whiteSpace=wrap;html=1;fillColor=#fff2cc;strokeColor=#d6b656;fontSize=18;fontStyle=1" vertex="1" parent="1">
          <mxGeometry x="1480" y="320" width="40" height="120" as="geometry" />
        </mxCell>
        <mxCell id="cyB58QRVmEf7rILU_TA3-145" value="" style="shape=curlyBracket;whiteSpace=wrap;html=1;rounded=1;labelPosition=left;verticalLabelPosition=middle;align=right;verticalAlign=middle;rotation=90;" vertex="1" parent="1">
          <mxGeometry x="857.5" y="690" width="77.5" height="135" as="geometry" />
        </mxCell>
        <mxCell id="cyB58QRVmEf7rILU_TA3-146" value="&lt;b style=&quot;font-size: 22px;&quot;&gt;k_v_groups*head_dim+&lt;/b&gt;&lt;b style=&quot;font-size: 22px;&quot;&gt;head_dim+&lt;/b&gt;&lt;b style=&quot;font-size: 22px;&quot;&gt;head_dim&lt;/b&gt;" style="text;html=1;align=center;verticalAlign=middle;resizable=0;points=[];autosize=1;strokeColor=none;fillColor=none;" vertex="1" parent="1">
          <mxGeometry x="680" y="680" width="490" height="40" as="geometry" />
        </mxCell>
        <mxCell id="cyB58QRVmEf7rILU_TA3-147" value="13" style="rounded=0;whiteSpace=wrap;html=1;fillColor=#fff2cc;strokeColor=#d6b656;fontSize=18;fontStyle=1" vertex="1" parent="1">
          <mxGeometry x="1456" y="800" width="39.99999999999999" height="160" as="geometry" />
        </mxCell>
        <mxCell id="cyB58QRVmEf7rILU_TA3-148" value="14" style="rounded=0;whiteSpace=wrap;html=1;fillColor=#fff2cc;strokeColor=#d6b656;fontSize=18;fontStyle=1" vertex="1" parent="1">
          <mxGeometry x="1496" y="800" width="39.99999999999999" height="160" as="geometry" />
        </mxCell>
        <mxCell id="cyB58QRVmEf7rILU_TA3-149" value="15" style="rounded=0;whiteSpace=wrap;html=1;fillColor=#fff2cc;strokeColor=#d6b656;fontSize=18;fontStyle=1" vertex="1" parent="1">
          <mxGeometry x="1536" y="800" width="39.99999999999999" height="160" as="geometry" />
        </mxCell>
        <mxCell id="cyB58QRVmEf7rILU_TA3-150" value="16" style="rounded=0;whiteSpace=wrap;html=1;fillColor=#fff2cc;strokeColor=#d6b656;fontSize=18;fontStyle=1" vertex="1" parent="1">
          <mxGeometry x="1576" y="800" width="39.99999999999999" height="160" as="geometry" />
        </mxCell>
        <mxCell id="cyB58QRVmEf7rILU_TA3-157" value="3" style="rounded=0;whiteSpace=wrap;html=1;fillColor=#fff2cc;strokeColor=#d6b656;fontSize=18;fontStyle=1" vertex="1" parent="1">
          <mxGeometry x="2360" y="315" width="40" height="120" as="geometry" />
        </mxCell>
        <mxCell id="cyB58QRVmEf7rILU_TA3-158" value="4" style="rounded=0;whiteSpace=wrap;html=1;fillColor=#fff2cc;strokeColor=#d6b656;fontSize=18;fontStyle=1" vertex="1" parent="1">
          <mxGeometry x="2400" y="315" width="40" height="120" as="geometry" />
        </mxCell>
        <mxCell id="cyB58QRVmEf7rILU_TA3-159" value="5" style="rounded=0;whiteSpace=wrap;html=1;fillColor=#fff2cc;strokeColor=#d6b656;fontSize=18;fontStyle=1" vertex="1" parent="1">
          <mxGeometry x="2440" y="315" width="40" height="120" as="geometry" />
        </mxCell>
        <mxCell id="cyB58QRVmEf7rILU_TA3-160" value="6" style="rounded=0;whiteSpace=wrap;html=1;fillColor=#fff2cc;strokeColor=#d6b656;fontSize=18;fontStyle=1" vertex="1" parent="1">
          <mxGeometry x="2480" y="315" width="40" height="120" as="geometry" />
        </mxCell>
        <mxCell id="cyB58QRVmEf7rILU_TA3-161" value="7" style="rounded=0;whiteSpace=wrap;html=1;fillColor=#fff2cc;strokeColor=#d6b656;fontSize=18;fontStyle=1" vertex="1" parent="1">
          <mxGeometry x="2520" y="315" width="40" height="120" as="geometry" />
        </mxCell>
        <mxCell id="cyB58QRVmEf7rILU_TA3-162" value="8" style="rounded=0;whiteSpace=wrap;html=1;fillColor=#fff2cc;strokeColor=#d6b656;fontSize=18;fontStyle=1" vertex="1" parent="1">
          <mxGeometry x="2560" y="315" width="40" height="120" as="geometry" />
        </mxCell>
        <mxCell id="cyB58QRVmEf7rILU_TA3-163" value="9" style="rounded=0;whiteSpace=wrap;html=1;fillColor=#fff2cc;strokeColor=#d6b656;fontSize=18;fontStyle=1" vertex="1" parent="1">
          <mxGeometry x="2600" y="315" width="40" height="120" as="geometry" />
        </mxCell>
        <mxCell id="cyB58QRVmEf7rILU_TA3-164" value="10" style="rounded=0;whiteSpace=wrap;html=1;fillColor=#fff2cc;strokeColor=#d6b656;fontSize=18;fontStyle=1" vertex="1" parent="1">
          <mxGeometry x="2640" y="315" width="40" height="120" as="geometry" />
        </mxCell>
        <mxCell id="cyB58QRVmEf7rILU_TA3-165" value="11" style="rounded=0;whiteSpace=wrap;html=1;fillColor=#fff2cc;strokeColor=#d6b656;fontSize=18;fontStyle=1" vertex="1" parent="1">
          <mxGeometry x="2680" y="315" width="40" height="120" as="geometry" />
        </mxCell>
        <mxCell id="cyB58QRVmEf7rILU_TA3-166" value="12" style="rounded=0;whiteSpace=wrap;html=1;fillColor=#fff2cc;strokeColor=#d6b656;fontSize=18;fontStyle=1" vertex="1" parent="1">
          <mxGeometry x="2720" y="315" width="40" height="120" as="geometry" />
        </mxCell>
        <mxCell id="cyB58QRVmEf7rILU_TA3-167" value="13" style="rounded=0;whiteSpace=wrap;html=1;fillColor=#fff2cc;strokeColor=#d6b656;fontSize=18;fontStyle=1" vertex="1" parent="1">
          <mxGeometry x="2760" y="315" width="40" height="120" as="geometry" />
        </mxCell>
        <mxCell id="cyB58QRVmEf7rILU_TA3-168" value="14" style="rounded=0;whiteSpace=wrap;html=1;fillColor=#fff2cc;strokeColor=#d6b656;fontSize=18;fontStyle=1" vertex="1" parent="1">
          <mxGeometry x="2800" y="315" width="40" height="120" as="geometry" />
        </mxCell>
        <mxCell id="cyB58QRVmEf7rILU_TA3-169" value="2" style="rounded=0;whiteSpace=wrap;html=1;fillColor=#fff2cc;strokeColor=#d6b656;fontSize=18;fontStyle=1" vertex="1" parent="1">
          <mxGeometry x="2320" y="315" width="40" height="120" as="geometry" />
        </mxCell>
        <mxCell id="cyB58QRVmEf7rILU_TA3-170" value="1" style="rounded=0;whiteSpace=wrap;html=1;fillColor=#fff2cc;strokeColor=#d6b656;fontSize=18;fontStyle=1" vertex="1" parent="1">
          <mxGeometry x="2280" y="315" width="40" height="120" as="geometry" />
        </mxCell>
        <mxCell id="cyB58QRVmEf7rILU_TA3-171" value="15" style="rounded=0;whiteSpace=wrap;html=1;fillColor=#fff2cc;strokeColor=#d6b656;fontSize=18;fontStyle=1" vertex="1" parent="1">
          <mxGeometry x="2840" y="315" width="40" height="120" as="geometry" />
        </mxCell>
        <mxCell id="cyB58QRVmEf7rILU_TA3-172" value="16" style="rounded=0;whiteSpace=wrap;html=1;fillColor=#fff2cc;strokeColor=#d6b656;fontSize=18;fontStyle=1" vertex="1" parent="1">
          <mxGeometry x="2880" y="315" width="40" height="120" as="geometry" />
        </mxCell>
        <mxCell id="cyB58QRVmEf7rILU_TA3-173" value="16" style="rounded=0;whiteSpace=wrap;html=1;fillColor=#fff2cc;strokeColor=#d6b656;fontSize=18;fontStyle=1" vertex="1" parent="1">
          <mxGeometry x="3060" y="685" width="40" height="120" as="geometry" />
        </mxCell>
        <mxCell id="cyB58QRVmEf7rILU_TA3-174" value="12" style="rounded=0;whiteSpace=wrap;html=1;fillColor=#fff2cc;strokeColor=#d6b656;fontSize=18;fontStyle=1" vertex="1" parent="1">
          <mxGeometry x="2765" y="690" width="40" height="120" as="geometry" />
        </mxCell>
        <mxCell id="cyB58QRVmEf7rILU_TA3-175" value="8" style="rounded=0;whiteSpace=wrap;html=1;fillColor=#fff2cc;strokeColor=#d6b656;fontSize=18;fontStyle=1" vertex="1" parent="1">
          <mxGeometry x="2480" y="690" width="40" height="120" as="geometry" />
        </mxCell>
        <mxCell id="cyB58QRVmEf7rILU_TA3-179" style="edgeStyle=orthogonalEdgeStyle;rounded=0;orthogonalLoop=1;jettySize=auto;html=1;exitX=0.5;exitY=1;exitDx=0;exitDy=0;entryX=0.164;entryY=0.013;entryDx=0;entryDy=0;entryPerimeter=0;" edge="1" parent="1" source="cyB58QRVmEf7rILU_TA3-170" target="cyB58QRVmEf7rILU_TA3-110">
          <mxGeometry relative="1" as="geometry" />
        </mxCell>
        <mxCell id="cyB58QRVmEf7rILU_TA3-180" style="edgeStyle=orthogonalEdgeStyle;rounded=0;orthogonalLoop=1;jettySize=auto;html=1;exitX=0.5;exitY=1;exitDx=0;exitDy=0;entryX=0.386;entryY=0.025;entryDx=0;entryDy=0;entryPerimeter=0;" edge="1" parent="1" source="cyB58QRVmEf7rILU_TA3-169" target="cyB58QRVmEf7rILU_TA3-110">
          <mxGeometry relative="1" as="geometry" />
        </mxCell>
        <mxCell id="cyB58QRVmEf7rILU_TA3-181" style="edgeStyle=orthogonalEdgeStyle;rounded=0;orthogonalLoop=1;jettySize=auto;html=1;exitX=0.5;exitY=1;exitDx=0;exitDy=0;entryX=0.665;entryY=0.001;entryDx=0;entryDy=0;entryPerimeter=0;" edge="1" parent="1" source="cyB58QRVmEf7rILU_TA3-157" target="cyB58QRVmEf7rILU_TA3-110">
          <mxGeometry relative="1" as="geometry" />
        </mxCell>
        <mxCell id="cyB58QRVmEf7rILU_TA3-182" style="edgeStyle=orthogonalEdgeStyle;rounded=0;orthogonalLoop=1;jettySize=auto;html=1;exitX=0.5;exitY=1;exitDx=0;exitDy=0;entryX=0.878;entryY=-0.035;entryDx=0;entryDy=0;entryPerimeter=0;" edge="1" parent="1" source="cyB58QRVmEf7rILU_TA3-158" target="cyB58QRVmEf7rILU_TA3-110">
          <mxGeometry relative="1" as="geometry" />
        </mxCell>
        <mxCell id="cyB58QRVmEf7rILU_TA3-183" value="" style="endArrow=classic;html=1;rounded=0;entryX=0.123;entryY=1.075;entryDx=0;entryDy=0;entryPerimeter=0;fillColor=#cce5ff;strokeColor=light-dark(#3c3e37, #babdc0);" edge="1" parent="1" target="cyB58QRVmEf7rILU_TA3-119">
          <mxGeometry width="50" height="50" relative="1" as="geometry">
            <mxPoint x="850" y="957" as="sourcePoint" />
            <mxPoint x="1830" y="810" as="targetPoint" />
            <Array as="points">
              <mxPoint x="850" y="1178" />
              <mxPoint x="2101" y="1178" />
            </Array>
          </mxGeometry>
        </mxCell>
        <mxCell id="cyB58QRVmEf7rILU_TA3-184" value="" style="endArrow=classic;html=1;rounded=0;" edge="1" parent="1">
          <mxGeometry width="50" height="50" relative="1" as="geometry">
            <mxPoint x="881" y="964" as="sourcePoint" />
            <mxPoint x="2151" y="810" as="targetPoint" />
            <Array as="points">
              <mxPoint x="881" y="1185" />
              <mxPoint x="2151" y="1185" />
            </Array>
          </mxGeometry>
        </mxCell>
        <mxCell id="cyB58QRVmEf7rILU_TA3-185" value="" style="endArrow=classic;html=1;rounded=0;" edge="1" parent="1">
          <mxGeometry width="50" height="50" relative="1" as="geometry">
            <mxPoint x="920" y="964" as="sourcePoint" />
            <mxPoint x="2190" y="810" as="targetPoint" />
            <Array as="points">
              <mxPoint x="920" y="1185" />
              <mxPoint x="2190" y="1185" />
            </Array>
          </mxGeometry>
        </mxCell>
        <mxCell id="cyB58QRVmEf7rILU_TA3-186" value="" style="endArrow=classic;html=1;rounded=0;entryX=0.87;entryY=1.111;entryDx=0;entryDy=0;entryPerimeter=0;" edge="1" parent="1" target="cyB58QRVmEf7rILU_TA3-119">
          <mxGeometry width="50" height="50" relative="1" as="geometry">
            <mxPoint x="950" y="959" as="sourcePoint" />
            <mxPoint x="2220" y="805" as="targetPoint" />
            <Array as="points">
              <mxPoint x="950" y="1180" />
              <mxPoint x="2231" y="1180" />
            </Array>
          </mxGeometry>
        </mxCell>
      </root>
    </mxGraphModel>
  </diagram>
</mxfile>
